<?xml version="1.0" encoding="utf-8"?>
<!-- Generator: Adobe Illustrator 23.0.3, SVG Export Plug-In . SVG Version: 6.00 Build 0)  -->
<svg version="1.1" id="Layer_1" xmlns="http://www.w3.org/2000/svg" xmlns:xlink="http://www.w3.org/1999/xlink" x="0px" y="0px"
	 viewBox="0 0 92.29 97" style="enable-background:new 0 0 92.29 97;" xml:space="preserve">
<style type="text/css">
	.st0{fill:#FFE000;stroke:#383737;stroke-width:4;stroke-miterlimit:10;}
	.st1{fill:#CFCECF;stroke:#383737;stroke-width:4;stroke-miterlimit:10;}
</style>
<g>
	<g>
		<path class="st0" d="M24.29,18H9.64c-0.11,0-0.21,0.06-0.27,0.15L2.04,30.85c-0.06,0.1-0.06,0.21,0,0.31l7.33,12.69
			C9.42,43.94,9.53,44,9.64,44h14.65c0.11,0,0.21-0.06,0.27-0.15l7.33-12.69c0.06-0.1,0.06-0.21,0-0.31l-7.33-12.69
			C24.5,18.06,24.4,18,24.29,18z"/>
		<path class="st0" d="M24.29,52H9.64c-0.11,0-0.21,0.06-0.27,0.15L2.04,64.85c-0.06,0.1-0.06,0.21,0,0.31l7.33,12.69
			C9.42,77.94,9.53,78,9.64,78h14.65c0.11,0,0.21-0.06,0.27-0.15l7.33-12.69c0.06-0.1,0.06-0.21,0-0.31l-7.33-12.69
			C24.5,52.06,24.4,52,24.29,52z"/>
		<path class="st0" d="M53.47,2H38.82c-0.11,0-0.21,0.06-0.27,0.15l-7.33,12.69c-0.06,0.1-0.06,0.21,0,0.31l7.33,12.69
			c0.06,0.1,0.16,0.15,0.27,0.15h14.65c0.11,0,0.21-0.06,0.27-0.15l7.33-12.69c0.06-0.1,0.06-0.21,0-0.31L53.74,2.15
			C53.69,2.06,53.58,2,53.47,2z"/>
		<path class="st0" d="M53.47,35H38.82c-0.11,0-0.21,0.06-0.27,0.15l-7.33,12.69c-0.06,0.1-0.06,0.21,0,0.31l7.33,12.69
			c0.06,0.1,0.16,0.15,0.27,0.15h14.65c0.11,0,0.21-0.06,0.27-0.15l7.33-12.69c0.06-0.1,0.06-0.21,0-0.31l-7.33-12.69
			C53.69,35.06,53.58,35,53.47,35z"/>
		<path class="st0" d="M82.66,18H68c-0.11,0-0.21,0.06-0.27,0.15l-7.33,12.69c-0.06,0.1-0.06,0.21,0,0.31l7.33,12.69
			C67.79,43.94,67.89,44,68,44h14.65c0.11,0,0.21-0.06,0.27-0.15l7.33-12.69c0.06-0.1,0.06-0.21,0-0.31l-7.33-12.69
			C82.87,18.06,82.77,18,82.66,18z"/>
		<path class="st0" d="M82.66,52H68c-0.11,0-0.21,0.06-0.27,0.15l-7.33,12.69c-0.06,0.1-0.06,0.21,0,0.31l7.33,12.69
			C67.79,77.94,67.89,78,68,78h14.65c0.11,0,0.21-0.06,0.27-0.15l7.33-12.69c0.06-0.1,0.06-0.21,0-0.31l-7.33-12.69
			C82.87,52.06,82.77,52,82.66,52z"/>
		<path class="st1" d="M53.47,69H38.82c-0.11,0-0.21,0.06-0.27,0.15l-7.33,12.69c-0.06,0.1-0.06,0.21,0,0.31l7.33,12.69
			c0.06,0.1,0.16,0.15,0.27,0.15h14.65c0.11,0,0.21-0.06,0.27-0.15l7.33-12.69c0.06-0.1,0.06-0.21,0-0.31l-7.33-12.69
			C53.69,69.06,53.58,69,53.47,69z"/>
	</g>
</g>
</svg>
